<?xml version="1.0" standalone="no"?><!DOCTYPE svg PUBLIC "-//W3C//DTD SVG 1.1//EN" "http://www.w3.org/Graphics/SVG/1.1/DTD/svg11.dtd"><svg t="1727582289261" class="icon" viewBox="0 0 1204 1024" version="1.1" xmlns="http://www.w3.org/2000/svg" p-id="12664" xmlns:xlink="http://www.w3.org/1999/xlink" width="235.15625" height="200"><path d="M3.614118 868.352c0 84.329412 267.565176 152.274824 597.654588 152.274824s597.654588-68.186353 597.654588-152.274824-267.565176-152.274824-597.654588-152.274824S3.614118 784.263529 3.614118 868.352z m0 0" fill="#F2F3F5" p-id="12665"></path><path d="M164.201412 497.784471a9.758118 9.758118 0 0 1 9.878588-9.637647H1034.842353a9.637647 9.637647 0 0 1 9.758118 9.637647v348.641882a48.188235 48.188235 0 0 1-48.911059 48.188235H213.232941a49.633882 49.633882 0 0 1-34.695529-14.095059 47.465412 47.465412 0 0 1-14.336-33.852235z m0 0" fill="#F2F3F5" p-id="12666"></path><path d="M144.564706 497.784471v348.641882a66.379294 66.379294 0 0 0 20.118588 47.465412 69.270588 69.270588 0 0 0 48.188235 19.636706h783.058824a67.824941 67.824941 0 0 0 68.547765-67.102118V497.784471a29.033412 29.033412 0 0 0-29.394824-28.792471H174.08A29.033412 29.033412 0 0 0 144.564706 497.784471z m19.516235 0a9.758118 9.758118 0 0 1 9.878588-9.637647H1034.842353a9.637647 9.637647 0 0 1 9.758118 9.637647v348.641882a48.188235 48.188235 0 0 1-48.911059 48.188235H213.232941a49.633882 49.633882 0 0 1-34.695529-14.095059 47.465412 47.465412 0 0 1-14.336-33.852235z m0 0" fill="#D7D7D7" p-id="12667"></path><path d="M379.482353 244.193882h467.666823l215.762824 240.941177H843.294118a38.912 38.912 0 0 0-38.550589 31.924706l-7.951058 45.537882a39.152941 39.152941 0 0 1-38.671059 31.924706H465.618824a39.152941 39.152941 0 0 1-38.79153-32.768L420.201412 518.023529a39.032471 39.032471 0 0 0-38.79153-32.768H147.817412z m0 0" fill="#FFFFFF" p-id="12668"></path><path d="M379.482353 244.193882h467.666823l215.762824 240.941177H843.294118a38.912 38.912 0 0 0-38.550589 31.924706l-7.951058 45.537882a39.152941 39.152941 0 0 1-38.671059 31.924706H465.618824a39.152941 39.152941 0 0 1-38.79153-32.768L420.201412 518.023529a39.032471 39.032471 0 0 0-38.79153-32.768H147.817412z m8.432941 19.275294L192.752941 465.980235h188.656941a58.187294 58.187294 0 0 1 58.066824 49.03153l6.26447 43.851294a19.275294 19.275294 0 0 0 19.395765 16.384h292.984471a19.395765 19.395765 0 0 0 19.275294-15.902118l8.071529-45.537882a58.307765 58.307765 0 0 1 57.825883-48.188235h176.24847l-180.705882-202.511059z m0 0M237.688471 8.432941A64.572235 64.572235 0 0 0 172.995765 72.282353a64.692706 64.692706 0 0 0 129.264941 0A64.572235 64.572235 0 0 0 237.688471 8.432941z m0 107.459765A45.056 45.056 0 0 1 192.752941 72.282353a45.056 45.056 0 0 1 90.112 0 45.056 45.056 0 0 1-45.17647 43.610353zM915.576471 180.705882a42.285176 42.285176 0 1 0 43.12847 42.285177A43.128471 43.128471 0 0 0 915.576471 180.705882z m0 66.258824a23.009882 23.009882 0 1 1 24.094117-23.009882 24.094118 24.094118 0 0 1-24.094117 23.130352zM440.199529 212.510118a9.155765 9.155765 0 0 1-9.758117-9.637647v-43.128471a9.758118 9.758118 0 0 1 19.516235 0v43.128471a9.637647 9.637647 0 0 1-9.758118 9.637647z" fill="#D7D7D7" p-id="12669"></path><path d="M461.763765 190.464h-44.092236a9.155765 9.155765 0 0 1-9.758117-9.637647 9.035294 9.035294 0 0 1 9.758117-9.517177h44.092236a9.035294 9.035294 0 0 1 9.758117 9.517177 9.155765 9.155765 0 0 1-9.758117 9.637647z m-379.120941 168.658824a9.155765 9.155765 0 0 1-9.758118-9.637648V265.035294a9.155765 9.155765 0 0 1 9.758118-9.517176 9.155765 9.155765 0 0 1 9.878588 9.517176v84.329412a9.276235 9.276235 0 0 1-9.878588 9.637647z m0 0" fill="#D7D7D7" p-id="12670"></path><path d="M125.771294 317.078588H39.634824a9.637647 9.637647 0 1 1 0-19.154823h86.13647a9.637647 9.637647 0 1 1 0 19.154823z m1024.602353 49.874824a9.155765 9.155765 0 0 1-9.878588-9.517177v-61.44a9.878588 9.878588 0 0 1 19.636706 0v61.44a9.155765 9.155765 0 0 1-9.758118 9.517177z m0 0" fill="#D7D7D7" p-id="12671"></path><path d="M1181.696 336.353882h-62.765176a9.637647 9.637647 0 1 1 0-19.275294h62.765176a9.637647 9.637647 0 1 1 0 19.275294zM1042.552471 201.065412a9.155765 9.155765 0 0 1-9.758118-9.637647v-96.376471a9.758118 9.758118 0 0 1 19.516235 0v96.978824a9.155765 9.155765 0 0 1-9.758117 9.637647z m0 0" fill="#D7D7D7" p-id="12672"></path><path d="M1091.584 152.997647h-97.942588a9.637647 9.637647 0 1 1 0-19.154823h97.942588a9.637647 9.637647 0 1 1 0 19.154823z m0 0" fill="#D7D7D7" p-id="12673"></path></svg>